<?xml version="1.0" standalone="no"?>
<!DOCTYPE svg PUBLIC "-//W3C//DTD SVG 20010904//EN"
 "http://www.w3.org/TR/2001/REC-SVG-20010904/DTD/svg10.dtd">
<svg version="1.0" xmlns="http://www.w3.org/2000/svg"
 width="500.000000pt" height="500.000000pt" viewBox="0 0 500.000000 500.000000"
 preserveAspectRatio="xMidYMid meet">

<g transform="translate(0.000000,500.000000) scale(0.100000,-0.100000)"
fill="#000000" stroke="none">
<path d="M2111 3573 c-5 -21 -15 -58 -21 -83 -19 -77 -22 -77 -39 0 -12 54
-22 76 -34 78 -23 5 -22 -5 13 -178 109 -539 358 -1070 610 -1304 l61 -56 285
0 284 0 -48 63 c-98 125 -217 318 -269 435 l-23 52 115 0 114 0 3 -132 c3
-116 5 -133 20 -136 16 -3 18 10 20 130 l3 133 141 5 141 5 -104 158 c-56 87
-103 160 -103 162 0 2 32 5 71 7 l70 3 -85 133 c-47 74 -86 138 -86 143 0 5
25 9 55 9 30 0 55 2 55 5 0 2 -40 65 -88 140 l-89 136 -91 -140 -91 -141 59 0
c33 0 60 -3 60 -7 0 -3 -38 -66 -85 -138 -47 -73 -85 -135 -85 -138 0 -3 31
-7 69 -9 l70 -3 -85 -130 c-46 -71 -88 -131 -93 -133 -20 -7 -106 278 -118
388 -5 54 -4 56 42 112 29 35 45 64 41 73 -8 23 -22 18 -46 -15 -12 -16 -25
-30 -29 -30 -4 0 -6 14 -3 30 3 25 1 30 -16 30 -16 0 -21 -9 -26 -50 -8 -60
-7 -59 -155 -31 -168 33 -389 116 -482 182 l-26 18 29 108 c15 59 28 118 28
131 0 37 -28 26 -39 -15z"/>
<path d="M2026 2705 c-25 -247 -82 -478 -163 -662 -4 -10 34 -13 171 -13 97 0
176 2 176 4 0 2 -13 32 -30 67 -58 127 -110 356 -126 554 -9 116 -19 135 -28
50z"/>
<path d="M1004 1940 c-52 -16 -77 -53 -82 -118 -3 -48 0 -63 20 -92 28 -41 78
-62 128 -54 56 9 72 21 60 45 -9 15 -15 17 -30 9 -10 -5 -34 -10 -53 -10 -48
0 -72 30 -72 90 0 60 24 90 72 90 19 0 43 -5 53 -10 15 -8 21 -6 30 9 8 16 7
22 -8 30 -29 15 -85 20 -118 11z"/>
<path d="M1291 1928 c-5 -13 -32 -74 -60 -137 -28 -62 -51 -115 -51 -117 0 -2
11 -4 26 -4 19 0 28 8 40 35 14 35 15 35 78 35 l65 0 12 -35 c11 -28 18 -35
41 -35 l27 0 -51 113 c-28 61 -55 124 -61 140 -14 34 -53 37 -66 5z m38 -146
c-23 -2 -43 -1 -45 1 -3 2 5 26 17 53 l21 49 24 -50 24 -50 -41 -3z"/>
<path d="M1520 1810 l0 -140 25 0 c25 0 25 1 25 83 l1 82 30 -57 c39 -77 60
-77 96 -3 15 30 31 55 35 55 4 0 8 -36 8 -80 0 -73 2 -80 20 -80 19 0 20 7 20
140 0 134 -1 140 -20 140 -15 0 -30 -21 -62 -85 -23 -47 -45 -85 -48 -85 -3 0
-25 38 -48 85 -32 64 -47 85 -62 85 -19 0 -20 -6 -20 -140z"/>
<path d="M1870 1821 c0 -72 -1 -134 -2 -138 -2 -5 9 -9 25 -11 27 -3 27 -2 27
52 l0 56 54 0 c65 0 94 20 102 71 5 29 1 41 -19 65 -23 27 -31 29 -106 32
l-81 4 0 -131z m138 73 c46 -32 21 -74 -45 -74 l-43 0 0 45 c0 44 1 45 33 45
18 0 43 -7 55 -16z"/>
<path d="M2270 1810 l0 -140 25 0 c24 0 24 2 27 90 l3 90 69 -90 c43 -57 75
-90 87 -90 18 0 19 10 19 140 l0 140 -25 0 c-24 0 -24 -2 -27 -90 l-3 -90 -68
90 c-45 58 -75 90 -88 90 -18 0 -19 -9 -19 -140z"/>
<path d="M2580 1810 l0 -140 90 0 c89 0 90 0 90 25 0 24 -2 25 -65 25 l-65 0
0 35 0 35 60 0 c57 0 60 1 60 25 0 24 -3 25 -60 25 l-60 0 0 30 0 30 65 0 c63
0 65 1 65 25 0 25 -1 25 -90 25 l-90 0 0 -140z"/>
<path d="M2875 1843 c-85 -192 -80 -173 -47 -173 23 0 30 6 41 35 l12 35 65 0
c63 0 64 0 78 -35 12 -27 21 -35 41 -35 29 0 34 -18 -50 173 -40 89 -51 107
-70 107 -19 0 -30 -18 -70 -107z m95 -9 c11 -25 20 -48 20 -50 0 -2 -20 -4
-45 -4 -43 0 -44 1 -35 25 6 14 14 36 20 50 5 14 12 25 15 25 3 0 15 -21 25
-46z"/>
<path d="M3140 1811 l0 -141 25 0 c24 0 25 3 25 56 l0 55 33 -3 c27 -3 36 -11
60 -55 24 -46 32 -53 58 -53 l29 0 -25 49 c-13 27 -30 53 -36 57 -7 4 -1 14
17 29 36 29 39 85 6 118 -19 19 -36 23 -107 26 l-85 3 0 -141z m150 79 c36
-36 -7 -77 -71 -68 -18 2 -25 10 -27 31 -2 16 -1 35 2 43 8 22 72 18 96 -6z"/>
<path d="M3560 1811 l0 -141 25 0 c25 0 25 1 25 83 l1 82 32 -57 c19 -34 39
-58 49 -58 9 0 30 24 50 58 l33 57 3 -82 c3 -75 5 -83 22 -83 19 0 20 8 20
140 0 127 -2 140 -17 140 -12 0 -32 -28 -62 -85 -24 -47 -47 -83 -50 -80 -2 3
-23 40 -46 83 -30 56 -47 78 -63 80 -22 3 -22 2 -22 -137z"/>
<path d="M3910 1810 l0 -140 90 0 c90 0 90 0 90 26 0 25 -1 25 -62 23 l-63 -3
-3 37 -3 37 60 0 c59 0 61 1 61 26 0 25 -2 25 -57 23 l-58 -3 -3 32 -3 32 65
0 c64 0 66 1 66 25 0 25 -1 25 -90 25 l-90 0 0 -140z"/>
</g>
</svg>
