<?xml version="1.0" encoding="utf-8"?>
<!-- Generator: Adobe Illustrator 25.2.3, SVG Export Plug-In . SVG Version: 6.00 Build 0)  -->
<svg version="1.1" id="Flat" xmlns="http://www.w3.org/2000/svg" xmlns:xlink="http://www.w3.org/1999/xlink" x="0px" y="0px"
	 viewBox="0 0 512 512" enable-background="new 0 0 512 512" xml:space="preserve">
<path fill="#A09F9F" d="M120.349,472h272c0,17.68-14.32,32-32,32h-208C134.669,504,120.349,489.68,120.349,472z"/>
<path fill="#A09F9F" d="M344.349,8l-19.2,25.6c-3.04,4-7.76,6.4-12.8,6.4h-118.08c-6.08,0-11.6-3.44-14.32-8.88L168.349,8H344.349z"
	/>
<path fill="#34AD85" d="M392.349,472h-272V40c0-17.68,14.32-32,32-32h16l11.6,23.12c2.72,5.44,8.24,8.88,14.32,8.88h118.08
	c5.04,0,9.76-2.4,12.8-6.4l19.2-25.6h16c17.68,0,32,14.32,32,32V472z"/>
<path fill="#63D3B0" d="M360.866,456H151.833c-8.552,0-15.484-7.033-15.484-15.709V42.38c0-10.151,8.111-18.38,18.117-18.38h0
	c5.857,0,11.213,3.353,13.839,8.664l6.519,13.181c2.903,5.869,8.821,9.574,15.292,9.574h120.426c8.419,0,16.505-4.088,21.634-10.938
	l10.495-14.196c2.924-3.956,7.513-6.284,12.387-6.284h3.173c10.006,0,18.117,8.229,18.117,18.38v397.91
	C376.349,448.967,369.417,456,360.866,456z"/>
<path fill="#EBE8ED" d="M504.349,120v128c0,4.4-3.6,8-8,8h-104h-46.72c-0.88,0-1.68,0.16-2.48,0.4l-46.8,15.6V120c0-4.4,3.6-8,8-8
	h88h104C500.749,112,504.349,115.6,504.349,120z"/>
<path fill="#B6A6C9" d="M504.349,120v128c0,4.418-3.582,8-8,8H345.648c-0.86,0-1.714,0.139-2.53,0.411L296.349,272v-21.36
	l21.125-7.024c7.203-2.395,14.745-3.616,22.336-3.616h132.539c8.837,0,16-7.163,16-16V112h8
	C500.768,112,504.349,115.582,504.349,120z"/>
<path fill="#666666" d="M392.349,472c0,17.68-14.32,32-32,32h-208c-11.92,0-22.32-6.56-27.84-16.24c1.28,0.16,2.56,0.24,3.84,0.24
	h208c11.84,0,22.16-6.4,27.68-16H392.349z"/>
<path fill="#666666" d="M344.349,8l-19.2,25.6c-3.04,4-7.76,6.4-12.8,6.4h-118.08c-6.08,0-11.6-3.44-14.32-8.88l-3.6-7.12h112
	c5.04,0,9.76-2.4,12.8-6.4l7.2-9.6H344.349z"/>
<g>
	<path fill="#AEFFE4" d="M146.264,56.448c12.819-2.034,12.059-27.214-0.781-25.177C132.664,33.305,133.424,58.486,146.264,56.448z"
		/>
	<path fill="#AEFFE4" d="M146.055,69.32c6.409-1.017,4.84-10.98-1.58-9.961C138.065,60.376,139.635,70.338,146.055,69.32z"/>
</g>
<path fill="#E87570" d="M406.429,221.2c-3.6,3.6-8.72,3.6-12.24,0l-34.88-35.76c-4.4-4.48-6.88-10.64-6.88-17.04
	c0-17.92,18.4-29.6,34.08-21.6l9.2,6.24c2.88,1.92,6.32,1.92,9.2,0l9.2-6.24c3.44-1.76,7.04-2.56,10.48-2.56
	c12.4,0,23.6,10.16,23.6,24.16c0,6.4-2.48,12.56-6.88,17.04L406.429,221.2z"/>
<path fill="#E87570" d="M448.189,168.4c0,6.4-2.48,12.56-6.88,17.04l-34.88,35.76c-0.72,0.72-1.52,1.36-2.32,1.76
	c-3.28,1.68-7.12,1.12-9.92-1.76l-34.88-35.76c-4.4-4.48-6.88-10.64-6.88-17.04c0-17.92,18.4-29.6,34.08-21.6l8.16,5.6
	c0,0,0.08,0,0.16,0l0.88,0.64c1.76,1.2,3.84,1.68,5.76,1.36c0.08-0.08,0.08,0,0.08,0c1.2-0.24,2.32-0.64,3.36-1.36l9.2-6.24
	c3.44-1.76,7.04-2.56,10.48-2.56c6.8,0,13.2,3.04,17.6,8.08C445.869,156.56,448.189,162.08,448.189,168.4z"/>
<path fill="#B6A6C9" d="M464.189,176.4c0,6.4-2.48,12.56-6.88,17.04l-34.88,35.76c-3.6,3.6-8.72,3.6-12.24,0l-6.08-6.24
	c0.8-0.4,1.6-1.04,2.32-1.76l34.88-35.76c4.4-4.48,6.88-10.64,6.88-17.04c0-6.32-2.32-11.84-6-16.08
	C453.949,153.12,464.189,163.04,464.189,176.4z"/>
<path fill="#DB4D4D" d="M448.189,168.4c0,6.4-2.48,12.56-6.88,17.04l-34.88,35.76c-3.6,3.6-8.72,3.6-12.24,0l-14.16-14.56
	c3.36,2.08,7.36,1.6,10.4-1.44l34.88-35.76c4.4-4.48,6.88-10.64,6.88-17.04c0-2.56-0.4-4.96-1.04-7.2
	C440.669,148,448.189,156.96,448.189,168.4z"/>
<path fill="#F2AFAF" d="M372.697,158.261c-5.147,0-5.156,8,0,8C377.845,166.261,377.853,158.261,372.697,158.261z"/>
</svg>
